<?xml version="1.0" encoding="UTF-8" standalone="no"?>
<svg
   xmlns:dc="http://purl.org/dc/elements/1.1/"
   xmlns:cc="http://creativecommons.org/ns#"
   xmlns:rdf="http://www.w3.org/1999/02/22-rdf-syntax-ns#"
   xmlns:svg="http://www.w3.org/2000/svg"
   xmlns="http://www.w3.org/2000/svg"
   xmlns:sodipodi="http://sodipodi.sourceforge.net/DTD/sodipodi-0.dtd"
   xmlns:inkscape="http://www.inkscape.org/namespaces/inkscape"
   inkscape:export-ydpi="200"
   inkscape:export-xdpi="200"
   inkscape:export-filename="D:\Dropbox\polytechnique\medias\drawings\research_axis\particles\schematic.png"
   sodipodi:docname="schematic.svg"
   inkscape:version="1.0 (4035a4fb49, 2020-05-01)"
   id="svg8"
   version="1.1"
   viewBox="0 0 55.394103 38.865697"
   height="38.865696mm"
   width="55.394104mm">
  <defs
     id="defs2">
    <marker
       inkscape:isstock="true"
       style="overflow:visible"
       id="marker1431"
       refX="0"
       refY="0"
       orient="auto"
       inkscape:stockid="Arrow1Mend">
      <path
         transform="matrix(-0.4,0,0,-0.4,-4,0)"
         style="fill:#000000;fill-opacity:1;fill-rule:evenodd;stroke:#000000;stroke-width:1pt;stroke-opacity:1"
         d="M 0,0 5,-5 -12.5,0 5,5 Z"
         id="path1429" />
    </marker>
    <marker
       inkscape:isstock="true"
       style="overflow:visible"
       id="marker1373"
       refX="0"
       refY="0"
       orient="auto"
       inkscape:stockid="Arrow1Mend">
      <path
         transform="matrix(-0.4,0,0,-0.4,-4,0)"
         style="fill:#000000;fill-opacity:1;fill-rule:evenodd;stroke:#000000;stroke-width:1pt;stroke-opacity:1"
         d="M 0,0 5,-5 -12.5,0 5,5 Z"
         id="path1371" />
    </marker>
    <marker
       inkscape:isstock="true"
       style="overflow:visible"
       id="marker1327"
       refX="0"
       refY="0"
       orient="auto"
       inkscape:stockid="Arrow1Mend">
      <path
         transform="matrix(-0.4,0,0,-0.4,-4,0)"
         style="fill:#000000;fill-opacity:1;fill-rule:evenodd;stroke:#000000;stroke-width:1pt;stroke-opacity:1"
         d="M 0,0 5,-5 -12.5,0 5,5 Z"
         id="path1325" />
    </marker>
    <marker
       inkscape:isstock="true"
       style="overflow:visible"
       id="marker1275"
       refX="0"
       refY="0"
       orient="auto"
       inkscape:stockid="Arrow1Mend">
      <path
         transform="matrix(-0.4,0,0,-0.4,-4,0)"
         style="fill:#000000;fill-opacity:1;fill-rule:evenodd;stroke:#000000;stroke-width:1pt;stroke-opacity:1"
         d="M 0,0 5,-5 -12.5,0 5,5 Z"
         id="path1273" />
    </marker>
    <marker
       inkscape:isstock="true"
       style="overflow:visible"
       id="Arrow2Mend"
       refX="0"
       refY="0"
       orient="auto"
       inkscape:stockid="Arrow2Mend">
      <path
         transform="scale(-0.6)"
         d="M 8.7185878,4.0337352 -2.2072895,0.01601326 8.7185884,-4.0017078 c -1.7454984,2.3720609 -1.7354408,5.6174519 -6e-7,8.035443 z"
         style="fill:#000000;fill-opacity:1;fill-rule:evenodd;stroke:#000000;stroke-width:0.625;stroke-linejoin:round;stroke-opacity:1"
         id="path928" />
    </marker>
    <marker
       inkscape:isstock="true"
       style="overflow:visible"
       id="Arrow1Mend"
       refX="0"
       refY="0"
       orient="auto"
       inkscape:stockid="Arrow1Mend">
      <path
         transform="matrix(-0.4,0,0,-0.4,-4,0)"
         style="fill:#000000;fill-opacity:1;fill-rule:evenodd;stroke:#000000;stroke-width:1pt;stroke-opacity:1"
         d="M 0,0 5,-5 -12.5,0 5,5 Z"
         id="path910" />
    </marker>
    <marker
       inkscape:isstock="true"
       style="overflow:visible"
       id="Arrow1Send"
       refX="0"
       refY="0"
       orient="auto"
       inkscape:stockid="Arrow1Send">
      <path
         transform="matrix(-0.2,0,0,-0.2,-1.2,0)"
         style="fill:#000000;fill-opacity:1;fill-rule:evenodd;stroke:#000000;stroke-width:1pt;stroke-opacity:1"
         d="M 0,0 5,-5 -12.5,0 5,5 Z"
         id="path916" />
    </marker>
    <marker
       inkscape:isstock="true"
       style="overflow:visible"
       id="Arrow1Lend"
       refX="0"
       refY="0"
       orient="auto"
       inkscape:stockid="Arrow1Lend">
      <path
         transform="matrix(-0.8,0,0,-0.8,-10,0)"
         style="fill:#000000;fill-opacity:1;fill-rule:evenodd;stroke:#000000;stroke-width:1pt;stroke-opacity:1"
         d="M 0,0 5,-5 -12.5,0 5,5 Z"
         id="path904" />
    </marker>
  </defs>
  <sodipodi:namedview
     fit-margin-bottom="0"
     fit-margin-right="0"
     fit-margin-left="0"
     fit-margin-top="0"
     inkscape:window-maximized="0"
     inkscape:window-y="0"
     inkscape:window-x="1273"
     inkscape:window-height="1368"
     inkscape:window-width="1278"
     showgrid="false"
     inkscape:document-rotation="0"
     inkscape:current-layer="layer1"
     inkscape:document-units="mm"
     inkscape:cy="25.155207"
     inkscape:cx="43.480133"
     inkscape:zoom="4"
     inkscape:pageshadow="2"
     inkscape:pageopacity="0.0"
     borderopacity="1.0"
     bordercolor="#666666"
     pagecolor="#ffffff"
     id="base" />
  <metadata
     id="metadata5">
    <rdf:RDF>
      <cc:Work
         rdf:about="">
        <dc:format>image/svg+xml</dc:format>
        <dc:type
           rdf:resource="http://purl.org/dc/dcmitype/StillImage" />
        <dc:title></dc:title>
      </cc:Work>
    </rdf:RDF>
  </metadata>
  <g
     transform="translate(-35.08748,-37.871057)"
     id="layer1"
     inkscape:groupmode="layer"
     inkscape:label="Layer 1">
    <circle
       transform="rotate(-90)"
       r="8.2853556"
       cy="58.264755"
       cx="-48.91032"
       id="path10"
       style="fill:#aaffee;fill-rule:evenodd;stroke:#000000;stroke-width:0.5;stroke-miterlimit:4;stroke-dasharray:none" />
    <circle
       style="fill:#aaffee;fill-rule:evenodd;stroke:#000000;stroke-width:0.499999;stroke-miterlimit:4;stroke-dasharray:none"
       id="path10-9"
       cx="-56.678417"
       cy="73.215187"
       r="8.2853556"
       transform="rotate(-90)" />
    <circle
       transform="rotate(-90)"
       r="8.2853556"
       cy="58.936871"
       cx="-65.688828"
       id="path10-9-1"
       style="fill:#aaffee;fill-rule:evenodd;stroke:#000000;stroke-width:0.499999;stroke-miterlimit:4;stroke-dasharray:none" />
    <path
       sodipodi:nodetypes="cccacssc"
       id="path882"
       d="m 35.106516,50.257187 c 2.913584,-0.423665 5.761828,-1.982186 8.181717,-2.943143 3.393699,-1.387683 5.687587,-5.097868 8.16158,-6.500685 1.843297,-1.012303 4.838673,-2.32633 7.399036,-2.138207 3.157205,0.231976 5.692589,1.903607 8.640454,3.94187 0,0 2.390606,1.59543 5.343002,3.389359 2.63656,1.602023 5.721144,3.362348 7.951305,4.286111 3.302371,1.367887 5.637144,3.305479 9.181024,3.77204"
       style="fill:none;stroke:#000000;stroke-width:0.264583px;stroke-linecap:butt;stroke-linejoin:miter;stroke-opacity:1;marker-mid:url(#marker1373);marker-end:url(#marker1431)" />
    <path
       sodipodi:nodetypes="caaasasc"
       id="path899"
       d="m 35.241794,61.606496 c 2.746609,1.228541 6.851703,4.28335 10.106544,6.670686 3.240621,2.376907 5.528717,6.381347 9.357577,7.60247 3.706121,1.181979 8.129115,0.907368 11.645607,-0.755969 2.492339,-1.178902 3.407572,-4.54014 5.64995,-6.04087 2.754642,-1.843567 5.528651,-2.331857 8.09764,-3.862878 1.702605,-1.014688 3.325906,-2.046337 4.805379,-3.502062 1.692703,-1.665532 2.571607,-2.520159 4.180717,-3.087678"
       style="fill:none;stroke:#000000;stroke-width:0.264583px;stroke-linecap:butt;stroke-linejoin:miter;stroke-opacity:1;marker-mid:url(#Arrow2Mend);marker-end:url(#Arrow1Mend)" />
  </g>
</svg>
